<?xml version="1.0" encoding="UTF-8"?>
<svg xmlns="http://www.w3.org/2000/svg" xmlns:xlink="http://www.w3.org/1999/xlink" width="16px" height="16px" viewBox="0 0 16 16" version="1.1">
<g id="surface1">
<path style=" stroke:none;fill-rule:nonzero;fill:rgb(95.686275%,26.27451%,21.176471%);fill-opacity:1;" d="M 8.234375 7.332031 L 12.488281 10.914062 L 11.902344 11.035156 L 11.476562 11.113281 C 11.054688 11.199219 10.816406 11.667969 11 12.046875 L 11.179688 12.433594 L 12.089844 14.394531 L 11.140625 14.832031 L 10.234375 12.878906 L 10.0625 12.492188 C 9.882812 12.101562 9.382812 11.980469 9.046875 12.253906 L 8.707031 12.519531 L 8.234375 12.898438 L 8.234375 7.332031 M 7.742188 5.792969 C 7.460938 5.792969 7.234375 6.019531 7.234375 6.300781 L 7.234375 13.933594 C 7.234375 14.214844 7.460938 14.441406 7.742188 14.441406 C 7.867188 14.441406 7.976562 14.398438 8.0625 14.332031 L 9.335938 13.300781 L 10.441406 15.714844 C 10.527344 15.894531 10.707031 16 10.902344 16 C 10.976562 16 11.046875 16 11.121094 15.945312 L 12.960938 15.09375 C 13.214844 14.972656 13.335938 14.667969 13.203125 14.417969 L 12.085938 12 L 13.695312 11.699219 C 13.800781 11.667969 13.902344 11.621094 13.980469 11.527344 C 14.160156 11.3125 14.132812 11 13.902344 10.804688 L 8.074219 5.90625 L 8.066406 5.914062 C 7.980469 5.839844 7.867188 5.792969 7.742188 5.792969 M 10.566406 6.667969 L 10.566406 5.332031 L 13.902344 5.332031 L 13.902344 6.667969 L 10.566406 6.667969 M 9.789062 3.171875 L 11.675781 1.285156 L 12.613281 2.226562 L 10.726562 4.113281 L 9.789062 3.171875 M 7.234375 0 L 8.566406 0 L 8.566406 3.332031 L 7.234375 3.332031 L 7.234375 0 M 3.1875 9.773438 L 5.074219 7.886719 L 6.015625 8.828125 L 4.128906 10.714844 L 3.1875 9.773438 M 3.1875 2.226562 L 4.128906 1.285156 L 6.015625 3.171875 L 5.074219 4.113281 L 3.1875 2.226562 M 5.234375 6.667969 L 1.902344 6.667969 L 1.902344 5.332031 L 5.234375 5.332031 L 5.234375 6.667969 "/>
</g>
</svg>
