<?xml version="1.0" encoding="UTF-8"?>
<svg xmlns="http://www.w3.org/2000/svg" xmlns:xlink="http://www.w3.org/1999/xlink" width="16px" height="16px" viewBox="0 0 16 16" version="1.1">
<g id="surface1">
<path style=" stroke:none;fill-rule:nonzero;fill:rgb(24.705882%,31.764706%,70.980392%);fill-opacity:1;" d="M 7.398438 5 L 7.398438 3.800781 L 8.601562 3.800781 L 8.601562 5 Z M 7.199219 2.398438 C 6.539062 2.398438 6 2.9375 6 3.601562 L 6 3.699219 L 3.039062 3.699219 C 2.78125 3.167969 2.234375 2.800781 1.601562 2.800781 C 0.71875 2.800781 0 3.515625 0 4.398438 C 0 5.28125 0.71875 6 1.601562 6 C 2.234375 6 2.78125 5.632812 3.039062 5.101562 L 4.710938 5.101562 C 3.238281 6.089844 2.238281 7.726562 2.113281 9.601562 L 2 9.601562 C 1.335938 9.601562 0.800781 10.136719 0.800781 10.800781 L 0.800781 12.398438 C 0.800781 13.0625 1.335938 13.601562 2 13.601562 L 3.601562 13.601562 C 4.261719 13.601562 4.800781 13.0625 4.800781 12.398438 L 4.800781 10.800781 C 4.800781 10.136719 4.261719 9.601562 3.601562 9.601562 L 3.515625 9.601562 C 3.664062 7.925781 4.730469 6.515625 6.203125 5.871094 C 6.421875 6.191406 6.785156 6.398438 7.199219 6.398438 L 8.800781 6.398438 C 9.214844 6.398438 9.578125 6.191406 9.796875 5.871094 C 11.269531 6.515625 12.335938 7.925781 12.484375 9.601562 L 12.398438 9.601562 C 11.738281 9.601562 11.199219 10.136719 11.199219 10.800781 L 11.199219 12.398438 C 11.199219 13.0625 11.738281 13.601562 12.398438 13.601562 L 14 13.601562 C 14.664062 13.601562 15.199219 13.0625 15.199219 12.398438 L 15.199219 10.800781 C 15.199219 10.136719 14.664062 9.601562 14 9.601562 L 13.886719 9.601562 C 13.761719 7.726562 12.761719 6.089844 11.289062 5.101562 L 12.960938 5.101562 C 13.21875 5.632812 13.765625 6 14.398438 6 C 15.28125 6 16 5.28125 16 4.398438 C 16 3.515625 15.28125 2.800781 14.398438 2.800781 C 13.765625 2.800781 13.21875 3.167969 12.960938 3.699219 L 10 3.699219 L 10 3.601562 C 10 2.9375 9.460938 2.398438 8.800781 2.398438 Z M 2.199219 11 L 3.398438 11 L 3.398438 12.199219 L 2.199219 12.199219 Z M 12.601562 12.199219 L 12.601562 11 L 13.800781 11 L 13.800781 12.199219 Z M 12.601562 12.199219 "/>
</g>
</svg>
